<?xml version="1.0" standalone="no"?><!DOCTYPE svg PUBLIC "-//W3C//DTD SVG 1.1//EN" "http://www.w3.org/Graphics/SVG/1.1/DTD/svg11.dtd"><svg t="1613622500147" class="icon" viewBox="0 0 1024 1024" version="1.1" xmlns="http://www.w3.org/2000/svg" p-id="9724" xmlns:xlink="http://www.w3.org/1999/xlink" width="144" height="144"><defs><style type="text/css"></style></defs><path d="M512 0C229.239467 0 0 229.239467 0 512s229.239467 512 512 512 512-229.239467 512-512S794.760533 0 512 0z m-140.8 687.872c-16.657067 16.554667-43.639467 16.554667-60.296533 0l-146.858667-145.9712a42.205867 42.205867 0 0 1-0.017067-59.9552l146.858667-145.9712a42.8032 42.8032 0 0 1 60.296533 0c16.657067 16.554667 16.657067 43.383467 0 59.921067l-116.718933 116.002133 116.736 116.0192a42.205867 42.205867 0 0 1 0 59.9552z m235.332267-307.029333l-109.1584 291.7376a42.7008 42.7008 0 0 1-54.818134 24.9344 42.308267 42.308267 0 0 1-25.105066-54.4768l109.1584-291.7376a42.7008 42.7008 0 0 1 54.818133-24.9344 42.274133 42.274133 0 0 1 25.105067 54.4768z m256.3584 157.8496a43.178667 43.178667 0 0 1-2.935467 3.2256l-146.858667 145.9712c-16.657067 16.554667-43.639467 16.554667-60.296533 0a42.205867 42.205867 0 0 1 0-59.921067l116.718933-116.0192-116.701866-116.002133a42.171733 42.171733 0 0 1 0-59.921067 42.8032 42.8032 0 0 1 60.296533 0l146.858667 145.9712a42.154667 42.154667 0 0 1 2.9184 56.695467z" fill="#1296db" p-id="9725"></path></svg>